# xmcd CD database file
#
# Track frame offsets:
#	150
#	24958
#	42853
#
# Disc length: 719 seconds
#
# Revision: 0
# Processed by: cddbd v1.5.1PL0 Copyright (c) Steve Scherf et al.
# Submitted via: CDex 1.51
#
DISCID=1702cd03
DTITLE=WINO - Love Is Here
DYEAR=2002
DGENRE=Rock
TTITLE0=Love Is Here
TTITLE1=Break Down The Long Road, Break Down The Wall
TTITLE2=Freedom Song
EXTD=YEAR: 2002
EXTT0=
EXTT1=
EXTT2=
PLAYORDER=
